<svg 
 xmlns="http://www.w3.org/2000/svg"
 xmlns:xlink="http://www.w3.org/1999/xlink"
 viewBox="0 0 26 25">
<path fill="rgb(201, 205, 209)" d="M25.339,24.132 L24.632,24.839 L17.816,18.023 C15.925,19.863 13.347,21.000 10.500,21.000 C4.701,21.000 -0.000,16.299 -0.000,10.500 C-0.000,4.701 4.701,-0.000 10.500,-0.000 C16.299,-0.000 21.000,4.701 21.000,10.500 C21.000,13.092 20.056,15.460 18.499,17.292 L25.339,24.132 ZM20.000,10.500 C20.000,5.253 15.747,1.000 10.500,1.000 C5.253,1.000 1.000,5.253 1.000,10.500 C1.000,15.747 5.253,20.000 10.500,20.000 C10.824,20.000 11.144,19.983 11.460,19.951 C11.621,19.935 11.778,19.904 11.937,19.880 C12.087,19.857 12.240,19.841 12.388,19.811 C12.606,19.767 12.818,19.707 13.031,19.648 C13.113,19.626 13.198,19.609 13.280,19.584 C13.532,19.507 13.776,19.416 14.018,19.319 C14.056,19.304 14.096,19.292 14.134,19.277 C14.402,19.165 14.663,19.041 14.918,18.907 C14.927,18.902 14.937,18.898 14.946,18.893 C16.485,18.076 17.766,16.846 18.656,15.354 C18.686,15.303 18.718,15.254 18.747,15.203 C18.985,14.786 19.190,14.349 19.364,13.896 C19.392,13.823 19.418,13.749 19.444,13.675 C19.606,13.219 19.738,12.750 19.830,12.265 C19.842,12.199 19.849,12.131 19.860,12.064 C19.945,11.554 20.000,11.034 20.000,10.500 Z"/>
</svg>